<svg width="40" height="40" viewBox="0 0 40 40" fill="none" xmlns="http://www.w3.org/2000/svg">
<path d="M36.4062 11.7188C37.0535 11.7188 37.5781 12.2433 37.5781 12.8906V37.6562H38.8281C39.4754 37.6562 40 38.1808 40 38.8281C40 39.4754 39.4754 40 38.8281 40H1.17188C0.524597 40 0 39.4754 0 38.8281C0 38.1808 0.524597 37.6562 1.17188 37.6562H2.42188V24.6094C2.42188 23.9621 2.94647 23.4375 3.59375 23.4375H8.28125C8.92853 23.4375 9.45312 23.9621 9.45312 24.6094V37.6562H11.7969V29.2969C11.7969 28.6496 12.3215 28.125 12.9688 28.125H17.6562C18.3035 28.125 18.8281 28.6496 18.8281 29.2969V37.6562H21.1719V19.9219C21.1719 19.2746 21.6965 18.75 22.3438 18.75H27.0312C27.6785 18.75 28.2031 19.2746 28.2031 19.9219V37.6562H30.5469V12.8906C30.5469 12.2433 31.0715 11.7188 31.7188 11.7188H36.4062ZM4.76562 37.6562H7.10938V25.7812H4.76562V37.6562ZM14.1406 30.4688V37.6562H16.4844V30.4688H14.1406ZM23.5156 37.6562H25.8594V21.0938H23.5156V37.6562ZM32.8906 14.0625V37.6562H35.2344V14.0625H32.8906ZM34.0625 0C36.001 0 37.5781 1.57715 37.5781 3.51562C37.5781 5.4541 36.001 7.03125 34.0625 7.03125C33.3427 7.03125 32.6731 6.81394 32.1152 6.44141L28.042 9.49512C28.1464 9.82715 28.2031 10.1807 28.2031 10.5469C28.2031 12.4854 26.626 14.0625 24.6875 14.0625C24.1456 14.0625 23.6318 13.9387 23.1729 13.7188L18.4844 18.4072C18.7044 18.8662 18.8281 19.3799 18.8281 19.9219C18.8281 21.8604 17.251 23.4375 15.3125 23.4375C13.374 23.4375 11.7969 21.8604 11.7969 19.9219C11.7969 19.7748 11.8065 19.6305 11.8242 19.4883L8.37598 17.7637C7.74335 18.3737 6.88354 18.75 5.9375 18.75C3.99902 18.75 2.42188 17.1729 2.42188 15.2344C2.42188 13.2959 3.99902 11.7188 5.9375 11.7188C7.87598 11.7188 9.45312 13.2959 9.45312 15.2344C9.45312 15.3814 9.44347 15.5258 9.42578 15.668L12.874 17.3926C13.5067 16.7825 14.3665 16.4062 15.3125 16.4062C15.8544 16.4062 16.3682 16.53 16.8271 16.75L21.5156 12.0615C21.2956 11.6026 21.1719 11.0888 21.1719 10.5469C21.1719 8.6084 22.749 7.03125 24.6875 7.03125C25.4073 7.03125 26.0769 7.24856 26.6348 7.62109L30.708 4.56738C30.6036 4.23535 30.5469 3.88184 30.5469 3.51562C30.5469 1.57715 32.124 0 34.0625 0ZM15.3125 18.75C14.6664 18.75 14.1406 19.2758 14.1406 19.9219C14.1406 20.5679 14.6664 21.0938 15.3125 21.0938C15.9586 21.0938 16.4844 20.5679 16.4844 19.9219C16.4844 19.2758 15.9586 18.75 15.3125 18.75ZM5.9375 14.0625C5.29144 14.0625 4.76562 14.5883 4.76562 15.2344C4.76562 15.8804 5.29144 16.4062 5.9375 16.4062C6.58356 16.4062 7.10938 15.8804 7.10938 15.2344C7.10938 14.5883 6.58356 14.0625 5.9375 14.0625ZM24.6875 9.375C24.0414 9.375 23.5156 9.90082 23.5156 10.5469C23.5156 11.1929 24.0414 11.7188 24.6875 11.7188C25.3336 11.7188 25.8594 11.1929 25.8594 10.5469C25.8594 9.90082 25.3336 9.375 24.6875 9.375ZM34.0625 2.34375C33.4164 2.34375 32.8906 2.86957 32.8906 3.51562C32.8906 4.16168 33.4164 4.6875 34.0625 4.6875C34.7086 4.6875 35.2344 4.16168 35.2344 3.51562C35.2344 2.86957 34.7086 2.34375 34.0625 2.34375Z" fill="#2BD0D0"/>
</svg>
