<svg width="108" height="33" viewBox="0 0 108 33" fill="none" xmlns="http://www.w3.org/2000/svg">
<path id="Shortly" fill-rule="evenodd" clip-rule="evenodd" d="M30.7403 25.1109H35.6346V13.6359C35.6346 12.8618 35.5734 12.0706 35.4511 11.2623C35.3287 10.4541 35.0891 9.7255 34.7322 9.07662C34.3753 8.42773 33.8655 7.89269 33.2028 7.47148C32.54 7.05027 31.6682 6.83967 30.5874 6.83967C29.425 6.83967 28.3595 7.12996 27.3908 7.71054C26.4222 8.29113 25.6422 9.11645 25.0508 10.1866V0.180054H20.1565V25.1109H25.0508V14.8312C25.1935 14.3531 25.3974 13.9205 25.6625 13.5334C25.9276 13.1464 26.2182 12.8106 26.5343 12.526C26.8504 12.2414 27.1767 12.0251 27.5132 11.8771C27.8497 11.7291 28.1607 11.6551 28.4461 11.6551C29.1599 11.6551 29.7207 11.9283 30.1286 12.4747C30.5364 13.0212 30.7403 13.8749 30.7403 15.0361V25.1109ZM13.9181 7.4543C14.2851 7.70475 14.4992 7.87551 14.5604 7.96658L16.7628 3.32193C16.2734 3.00317 15.7381 2.68443 15.1569 2.36567C14.5757 2.04692 13.9486 1.76233 13.2757 1.51188C12.6027 1.26143 11.8992 1.05652 11.165 0.897144C10.4309 0.737768 9.68656 0.658081 8.93202 0.658081C7.8512 0.658081 6.82648 0.828839 5.85782 1.17036C4.88916 1.51188 4.03777 2.01846 3.30363 2.69012C2.56948 3.36177 1.9883 4.1871 1.56005 5.16613C1.1318 6.14515 0.917674 7.27215 0.917674 8.54716C0.917674 9.45788 1.03493 10.2548 1.26945 10.9378C1.50397 11.6208 1.86084 12.2242 2.34007 12.7478C2.8193 13.2715 3.42598 13.7326 4.16012 14.131C4.89426 14.5294 5.76095 14.8994 6.7602 15.2409C7.06201 15.3411 7.35485 15.4376 7.63872 15.5305L9.16952 16.0278C9.68075 16.2034 10.1318 16.3907 10.5227 16.5899C10.9917 16.829 11.3588 17.0965 11.6239 17.3925C11.889 17.6885 12.0215 18.0641 12.0215 18.5195C12.0215 19.7262 11.1345 20.3296 9.36027 20.3296C8.52417 20.3296 7.69827 20.2043 6.88255 19.9539C6.06684 19.7034 5.32761 19.4188 4.66484 19.1001C4.00207 18.7813 3.44638 18.4626 2.99773 18.1438C2.54909 17.8251 2.28399 17.6088 2.20242 17.495L0 22.3787C0.632178 22.8568 1.32043 23.278 2.06477 23.6423C2.80911 24.0066 3.57892 24.3196 4.37424 24.5815C5.16957 24.8433 5.98527 25.0425 6.82137 25.1791C7.65748 25.3157 8.47318 25.384 9.26851 25.384C10.3085 25.384 11.318 25.2531 12.2968 24.9913C13.2757 24.7295 14.1424 24.3083 14.8969 23.7277C15.6514 23.1471 16.2581 22.3844 16.717 21.4395C17.1758 20.4946 17.4052 19.3392 17.4052 17.9731C17.4052 16.8574 17.2472 15.9012 16.9311 15.1043C16.615 14.3074 16.1664 13.6301 15.5852 13.0723C15.004 12.5145 14.2953 12.0477 13.4592 11.6721C12.6231 11.2964 11.6851 10.9492 10.645 10.6304C10.3935 10.5545 10.1522 10.4812 9.92107 10.4103L8.65672 10.0157C8.08572 9.83355 7.6116 9.63433 7.23433 9.41804C6.85706 9.20174 6.57156 8.95699 6.37783 8.68377C6.1841 8.41055 6.08724 8.06904 6.08724 7.65921C6.08724 6.3159 6.98451 5.64425 8.77908 5.64425C9.43165 5.64425 10.0842 5.74671 10.7368 5.95162C11.3894 6.15653 11.9909 6.39559 12.5415 6.66881C13.0921 6.94203 13.551 7.20385 13.9181 7.4543ZM46.7367 25.4525C45.3704 25.4525 44.1519 25.202 43.0813 24.7011C42.0107 24.2003 41.1083 23.5229 40.3742 22.6691C39.64 21.8153 39.0843 20.8249 38.7071 19.6979C38.3298 18.5709 38.1412 17.3927 38.1412 16.1632C38.1412 14.9337 38.3298 13.7555 38.7071 12.6285C39.0843 11.5014 39.64 10.5111 40.3742 9.65725C41.1083 8.80345 42.0107 8.12042 43.0813 7.60814C44.1519 7.09586 45.3704 6.83972 46.7367 6.83972C48.103 6.83972 49.3164 7.09586 50.3768 7.60814C51.4373 8.12042 52.3345 8.80345 53.0687 9.65725C53.8028 10.5111 54.3636 11.5014 54.7511 12.6285C55.1385 13.7555 55.3323 14.9337 55.3323 16.1632C55.3323 17.3927 55.1436 18.5709 54.7664 19.6979C54.3891 20.8249 53.8334 21.8153 53.0993 22.6691C52.3651 23.5229 51.4627 24.2003 50.3921 24.7011C49.3215 25.202 48.103 25.4525 46.7367 25.4525ZM44.1673 19.5613C43.4943 18.7075 43.1579 17.5748 43.1579 16.1632C43.1579 15.4801 43.2496 14.8483 43.4332 14.2678C43.6167 13.6872 43.8665 13.192 44.1826 12.7821C44.4987 12.3723 44.876 12.0536 45.3144 11.8259C45.7528 11.5982 46.227 11.4844 46.7368 11.4844C47.7564 11.4844 48.6027 11.9113 49.2757 12.7651C49.9487 13.6189 50.2851 14.7516 50.2851 16.1632C50.2851 16.8462 50.1934 17.478 50.0098 18.0586C49.8263 18.6392 49.5765 19.1344 49.2604 19.5442C48.9443 19.954 48.5721 20.2728 48.1439 20.5005C47.7156 20.7281 47.2466 20.842 46.7368 20.842C45.6968 20.842 44.8403 20.4151 44.1673 19.5613ZM68.1475 11.86C66.9647 11.8827 65.8941 12.099 64.9356 12.5089C63.9772 12.9187 63.2838 13.5334 62.8556 14.3531V25.1109H57.9613V7.18117H62.4579V10.8013C63.0085 9.59457 63.7172 8.64971 64.5839 7.96667C65.4506 7.28363 66.3733 6.93073 67.3522 6.90796H67.8416C67.9436 6.90796 68.0455 6.91934 68.1475 6.94211V11.86ZM78.5002 25.0426C79.3669 24.7694 80.1367 24.4734 80.8097 24.1546L79.8614 19.8173C79.5759 19.9767 79.2394 20.1247 78.852 20.2613C78.4645 20.3979 78.0873 20.4662 77.7202 20.4662C77.3123 20.4662 76.9759 20.3353 76.7107 20.0735C76.4456 19.8116 76.3131 19.3848 76.3131 18.7928V11.3135H79.5861V7.18115H76.3131V1.47778H71.4188V7.18115H69.3694V11.3135H71.4188V20.6711C71.4188 21.5363 71.5361 22.2763 71.7706 22.891C72.0051 23.5057 72.3263 24.0009 72.7342 24.3766C73.142 24.7523 73.6161 25.0255 74.1566 25.1963C74.697 25.367 75.273 25.4524 75.8848 25.4524C76.7617 25.4524 77.6335 25.3158 78.5002 25.0426ZM82.8574 0.180054H87.7517V18.7245C87.7517 20.0906 88.2717 20.7736 89.3117 20.7736C89.5564 20.7736 89.8266 20.7338 90.1223 20.6541C90.418 20.5744 90.6882 20.4549 90.9329 20.2955L91.5753 24.3937C90.9635 24.7125 90.26 24.9629 89.4647 25.1451C88.6693 25.3272 87.925 25.4183 87.2317 25.4183C85.8245 25.4183 84.7437 25.0085 83.9892 24.1888C83.2347 23.3692 82.8574 22.1852 82.8574 20.637V0.180054ZM94.3114 28.1504C93.9545 28.0821 93.5721 27.9683 93.1643 27.8089V32.4877C93.5925 32.6698 94.0157 32.8007 94.4337 32.8804C94.8518 32.9601 95.2647 33 95.6726 33C97.1816 33 98.4868 32.5389 99.588 31.6168C100.689 30.6947 101.454 29.4937 101.882 28.0138L108 7.18115H103.412L100.2 20.4321L96.4679 7.18115H91.4207L97.5385 25.1109C97.2734 26.2948 96.9777 27.1145 96.6514 27.5698C96.3251 28.0252 95.8663 28.2529 95.2749 28.2529C94.9894 28.2529 94.6682 28.2187 94.3114 28.1504Z" fill="#34313D"/>
</svg>
