<svg width="610" height="458" viewBox="0 0 610 458" fill="none" xmlns="http://www.w3.org/2000/svg">
<path d="M519.889 87.622C500.988 66.3524 486.357 40.9604 463.766 23.6024C428.282 -3.7202 377.213 -6.38418 335.721 10.7799C294.23 27.944 261.907 62.5419 240.604 101.717C229.398 122.33 220.595 144.813 204.174 161.657C190.292 175.887 172.048 184.967 154.749 194.855C126.858 210.755 99.9977 229.968 81.949 256.329C63.9003 282.691 55.8304 317.314 67.3686 347.022C75.1488 367.069 90.82 383.02 106.875 397.461C125.767 414.439 146.074 430.339 169.508 440.455C198.848 453.042 231.417 455.748 263.356 457.029C319.978 459.291 376.69 457.6 433.072 451.971C479.241 447.368 526.809 439.511 565.437 414.077C619.549 378.459 647.449 313.2 653.729 249.205C656.285 223.611 655.638 197.014 645.65 173.265C621.765 116.462 557.316 129.748 519.889 87.622Z" fill="#EFF1F7"/>
<path d="M148.395 192.259C148.395 192.259 134.58 189.459 130.71 200.496C126.841 211.534 130.71 249.653 130.71 249.653L182.251 291.714L148.395 192.259Z" fill="#3F3D56"/>
<path d="M213.21 360.819L192.776 367.478C189.807 368.437 186.692 366.574 185.809 363.311C184.937 360.044 186.63 356.616 189.596 355.644L210.002 348.978C212.969 348.019 216.083 349.879 216.969 353.14C217.85 356.402 216.17 359.834 213.21 360.819Z" fill="#2BD0D0"/>
<ellipse cx="212.21" cy="375.332" rx="9.15416" ry="10.4523" fill="#25233A"/>
<ellipse cx="210.962" cy="377.707" rx="4.57708" ry="5.22614" fill="#3F3D56"/>
<ellipse cx="174.761" cy="364.88" rx="9.15416" ry="10.4523" fill="#25233A"/>
<path d="M178.09 365.355C178.09 368.241 176.041 370.581 173.513 370.581C170.985 370.581 168.936 368.241 168.936 365.355C168.936 362.468 170.985 360.129 173.513 360.129C176.041 360.129 178.09 362.468 178.09 365.355Z" fill="url(#paint0_linear_0_803)"/>
<ellipse cx="172.265" cy="379.133" rx="9.15416" ry="10.4523" fill="#25233A"/>
<path d="M179.755 379.608C179.755 382.494 177.705 384.834 175.177 384.834C172.65 384.834 170.6 382.494 170.6 379.608C170.6 376.722 172.65 374.382 175.177 374.382C177.705 374.382 179.755 376.722 179.755 379.608Z" fill="#3F3D56"/>
<path d="M213.945 371.412L171.681 361.866C168.706 361.185 166.784 357.941 167.38 354.609C167.989 351.284 170.884 349.133 173.859 349.796L216.123 359.324C219.097 360.005 221.02 363.249 220.424 366.58C219.823 369.913 216.925 372.074 213.945 371.412Z" fill="#2BD0D0"/>
<path d="M188.076 294.564H199.727V350.626C199.727 354.3 197.12 357.278 193.905 357.278C190.689 357.278 188.082 354.3 188.082 350.626V294.564H188.076Z" fill="#2BD0D0"/>
<path d="M192.393 367.453L171.973 374.128C169.004 375.092 165.887 373.227 165.004 369.958C164.133 366.689 165.825 363.26 168.789 362.287L189.208 355.63C192.174 354.67 195.287 356.531 196.172 359.794C197.036 363.057 195.349 366.477 192.393 367.453Z" fill="#2BD0D0"/>
<path d="M196.398 367.027L193.798 367.551C193.022 367.706 192.211 367.761 191.405 367.714L192.491 367.498C193.247 367.349 193.954 367.105 194.578 366.78L196.398 367.027Z" fill="url(#paint1_linear_0_803)"/>
<path d="M217.203 354.179C217.202 355.656 216.773 357.087 215.989 358.228L198.895 354.095C199.325 353.395 199.636 352.6 199.809 351.756L210.339 348.028C211.709 347.555 213.18 347.753 214.428 348.578C215.676 349.402 216.599 350.786 216.994 352.424C217.13 352.995 217.201 353.585 217.203 354.179Z" fill="url(#paint2_linear_0_803)"/>
<path opacity="0.31" d="M187.428 352.625C187.306 352.132 187.244 351.629 187.244 351.123V295.515H192.19V355.445C192.141 355.739 192.157 356.039 192.237 356.328C191.488 356.028 190.685 355.864 189.87 355.842C189.295 355.804 188.717 355.804 188.142 355.842L188.496 355.747C188.714 355.71 187.714 353.76 187.428 352.625Z" fill="url(#paint3_linear_0_803)"/>
<path opacity="0.31" d="M218.276 370.391C217.469 370.888 216.561 371.149 215.638 371.147C215.267 371.146 214.896 371.105 214.532 371.024L195.884 366.837L194.33 366.493C193.8 366.946 193.198 367.286 192.555 367.495L191.632 367.796L172.47 374.13C169.546 375.087 166.477 373.234 165.607 369.985C167.269 371.7 169.792 371.86 171.618 370.366C173.958 368.565 183.27 365.859 188.546 364.42C191.039 363.758 192.947 361.523 193.412 358.72C193.426 358.555 193.448 358.391 193.479 358.228C194.358 359.286 195.973 360.473 198.893 361.481C206.082 363.941 217.756 365.57 217.756 365.57C217.756 365.57 219.863 367.87 218.276 370.391Z" fill="url(#paint4_linear_0_803)"/>
<path d="M219.7 368.681C219.26 369.42 218.696 370.064 218.035 370.581C218.483 370.086 219.058 369.426 219.7 368.681Z" fill="url(#paint5_linear_0_803)"/>
<path d="M188.326 352.108C188.556 353.22 189.044 354.245 189.741 355.081C189.567 355.119 189.387 355.169 189.207 355.226L171.506 361.079C168.783 360.307 166.99 357.407 167.308 354.289C167.625 351.172 169.956 348.795 172.764 348.726C173.141 348.727 173.517 348.769 173.887 348.852L188.326 352.108Z" fill="url(#paint6_linear_0_803)"/>
<path d="M215.539 84.9556C215.539 84.9556 215.309 65.1862 201.329 66.8909C187.349 68.5956 188.421 62.0503 182.449 62.7691C176.478 63.4878 169.541 70.1667 171.534 78.4167C173.526 86.6666 166.264 88.5112 161.493 94.7703C156.723 101.029 162.616 106.15 170.652 112.269C178.689 118.388 170.153 116.804 174.918 126.479C179.683 136.154 195.812 123.795 195.812 123.795L215.539 84.9556Z" fill="#503164"/>
<path d="M102.08 412.961L111.842 413.34V324.263C111.842 324.263 112.333 301.229 131.359 298.918C150.384 296.608 322.927 268.069 322.927 268.069C322.927 268.069 329.766 267.242 333.705 282.228C337.644 297.214 341.478 356.142 341.478 356.142L394.438 364.291C394.438 364.291 395.836 260.197 376.711 254.452C357.586 248.708 107.478 277.979 107.478 277.979C107.478 277.979 88.9272 388.538 102.08 412.961Z" fill="#2BD0D0"/>
<path opacity="0.197289" d="M102.08 412.961L111.842 413.34V324.263C111.842 324.263 112.333 301.229 131.359 298.918C150.384 296.608 322.927 268.069 322.927 268.069C322.927 268.069 329.766 267.242 333.705 282.228C337.644 297.214 341.478 356.142 341.478 356.142L394.438 364.291C394.438 364.291 395.836 260.197 376.711 254.452C357.586 248.708 107.478 277.979 107.478 277.979C107.478 277.979 88.9272 388.538 102.08 412.961Z" fill="url(#paint7_linear_0_803)"/>
<path d="M51.5962 288.658C51.5962 288.658 56.3763 258.483 89.9972 250.575L327.325 219.556C327.325 219.556 350.624 218.454 361.283 225.815C371.941 233.176 387.154 239.278 393.391 272.588C399.628 305.898 401.119 362.803 401.119 362.803L395.218 363.848C395.218 363.848 386.607 260.807 377.483 254.283C368.359 247.76 121.664 287.782 121.664 287.782C121.664 287.782 104.553 291.668 103.062 320.595C101.572 349.523 103.062 412.39 103.062 412.39L51.5962 388.689V288.658Z" fill="#2BD0D0"/>
<path opacity="0.19" d="M295.783 231.702C283.498 229.897 271.114 228.59 258.735 229.119C249.432 229.53 240.189 230.986 230.963 232.437L149.594 245.267C148.214 245.485 146.64 245.84 145.95 247.21C144.625 249.824 147.739 252.402 150.262 253.398C177.317 264.093 206.221 274.925 234.071 267.299C246.803 263.813 258.63 256.573 271.545 254.058C284.459 251.543 297.716 253.859 310.603 251.487C322.716 249.258 334.251 242.927 346.53 242.864C350.296 242.864 354.172 243.412 357.744 242.068C361.316 240.723 364.475 236.614 363.486 232.518C351.958 232.063 339.016 229.66 327.708 232.269C316.516 234.846 306.992 231.702 295.783 231.702Z" fill="url(#paint8_linear_0_803)"/>
<path d="M222.197 246.465L222.671 248.474C222.671 248.474 236.719 258.14 236.631 258.452C236.543 258.763 294.905 243.021 294.905 243.021L296.262 238.502L222.197 246.465Z" fill="#2BD0D0"/>
<path d="M222.197 246.465L222.671 248.474C222.671 248.474 236.719 258.14 236.631 258.452C236.543 258.763 294.905 243.021 294.905 243.021L296.262 238.502L222.197 246.465Z" fill="url(#paint9_linear_0_803)"/>
<path d="M223.029 246.45L274.714 233.751L296.262 238.553L237.544 254.656L223.029 246.45Z" fill="#2BD0D0"/>
<path d="M223.029 246.45L274.714 233.751L296.262 238.553L237.544 254.656L223.029 246.45Z" fill="url(#paint10_linear_0_803)"/>
<path d="M206.245 257.016L218.276 257.502C218.276 257.502 221.332 257.719 222.121 254.921C222.911 252.123 217.219 246.217 216.609 246.106C215.999 245.994 200.166 251.065 202.448 256.136L206.245 257.016Z" fill="#2BD0D0"/>
<path d="M206.245 257.016L218.276 257.502C218.276 257.502 221.332 257.719 222.121 254.921C222.911 252.123 217.219 246.217 216.609 246.106C215.999 245.994 200.166 251.065 202.448 256.136L206.245 257.016Z" fill="url(#paint11_linear_0_803)"/>
<path d="M65.7435 395.339L59.8695 415.937C42.8321 422.922 28.3466 415.937 28.3466 415.937L24.1337 394.336C24.1337 394.336 45.3839 402.47 65.7435 395.339Z" fill="#2BD0D0"/>
<path d="M65.7435 395.339L59.8695 415.937C42.8321 422.922 28.3466 415.937 28.3466 415.937L24.1337 394.336C24.1337 394.336 45.3839 402.47 65.7435 395.339Z" fill="url(#paint12_linear_0_803)"/>
<path d="M72.4011 376.282L70.5003 392.382L65.685 395.24C45.1729 402.291 23.7297 394.254 23.7297 394.254L20.0328 391.134L18.3083 376.282H72.4011Z" fill="#2BD0D0"/>
<path d="M72.4011 376.282L70.5003 392.382L65.685 395.24C45.1729 402.291 23.7297 394.254 23.7297 394.254L20.0328 391.134L18.3083 376.282H72.4011Z" fill="url(#paint13_linear_0_803)"/>
<ellipse cx="45.3547" cy="375.332" rx="27.0464" ry="5.70124" fill="#2BD0D0"/>
<ellipse cx="45.3547" cy="375.332" rx="27.0464" ry="5.70124" fill="url(#paint14_linear_0_803)"/>
<path d="M32.9894 251.834C30.3408 250.394 27.4944 249.308 25.203 247.205C20.5872 242.931 19.4167 235.568 17.9715 228.963C16.5264 222.359 13.7294 215.097 8.03112 213.203C5.89906 212.502 3.39884 212.78 1.77782 214.523C0.06888 216.36 -0.277304 219.378 0.18977 222.043C0.656844 224.708 1.79431 227.094 2.6735 229.62C4.72658 235.486 5.35153 241.884 4.48136 248.127C3.76151 253.248 2.04158 258.438 3.14607 263.458C5.01986 271.976 14.3558 276.971 14.6141 285.748C14.79 291.67 10.5478 297.151 11.5094 302.979C12.2183 307.292 15.6746 310.657 15.8615 315.039C16.0703 320.009 11.982 324.214 12.1798 329.183C12.3777 334.153 16.6967 337.474 19.5156 341.382C21.8789 344.665 23.2841 348.718 23.5325 352.969C23.6808 355.621 23.3841 358.368 24.1369 360.881C24.6864 362.718 25.7854 364.278 26.6371 365.932C27.5768 367.719 28.2856 369.651 29.4176 371.306C32.3294 375.523 37.1845 377.274 41.6714 375.726C42.5451 369.121 41.7813 362.384 42.0231 355.71C42.5012 342.778 46.7598 329.745 44.0343 317.193C43.0342 312.589 41.1109 308.22 40.7703 303.497C40.468 299.279 41.4461 295.099 42.1275 290.938C43.5342 282.344 43.5123 273.46 42.9353 264.772C42.4792 257.876 38.259 254.7 32.9894 251.834Z" fill="#2BD0D0"/>
<path d="M49.7252 285.791C49.6809 291.551 50.8321 297.506 49.216 302.976C47.9929 307.121 45.3032 310.515 43.9141 314.59C40.7097 323.996 45.021 334.544 44.141 344.587C43.7758 348.725 42.5305 352.7 41.7446 356.763C40.7686 361.906 40.5293 367.196 41.0362 372.427C40.929 374.396 42.1086 376.154 43.8034 376.553C46.5151 377.732 49.3242 378.596 52.188 379.133C51.2199 373.043 52.2395 366.76 55.0548 361.469C59.4436 353.268 67.972 347.741 69.5604 338.323C70.6341 331.945 68.1325 325.472 68.3096 318.981C68.4371 314.661 69.7408 310.494 72.0398 307.057C74.1041 303.991 76.899 301.619 78.8194 298.44C83.4351 290.775 81.9962 280.53 80.6236 271.364C79.2511 262.197 78.4541 251.649 83.8778 244.704C85.5935 242.508 87.8294 240.862 89.3845 238.515C92.8491 233.285 91.9746 225.229 87.9456 220.554C83.9166 215.88 77.4303 214.587 71.9513 216.643C69.6401 217.419 67.6002 219.001 66.118 221.166C63.3508 225.645 64.4577 231.765 65.631 237.089C66.6549 241.713 67.4795 247.05 66.0793 251.712C65.0333 255.182 62.3823 257.062 60.1298 259.478C53.6792 266.282 49.9249 275.776 49.7252 285.791Z" fill="#2BD0D0"/>
<path d="M44.1582 336.87C43.3777 343.134 42.2508 349.449 42.02 355.732V356.364C42.0076 356.52 41.9762 356.673 41.9265 356.819C40.9516 361.966 40.7084 367.262 41.2065 372.499C41.236 373.347 41.4234 374.178 41.7561 374.936C41.7286 375.202 41.6957 375.46 41.6627 375.726C37.1744 377.275 32.3176 375.523 29.405 371.305C28.3056 369.651 27.5636 367.718 26.6236 365.931C25.7441 364.27 24.6723 362.71 24.1226 360.879C23.3696 358.353 23.6664 355.619 23.518 352.966C23.2695 348.715 21.8638 344.661 19.4999 341.378C16.68 337.495 12.3541 334.236 12.1617 329.184C11.9693 324.132 16.0534 320.009 15.8445 315.039C15.6576 310.656 12.2002 307.29 11.4911 302.977C10.5292 297.148 14.7892 291.667 14.5968 285.743C14.3384 276.966 4.99947 271.97 3.12509 263.451C2.02574 258.431 3.74072 253.24 4.46079 248.119C5.33516 241.883 4.71766 235.492 2.67435 229.628C1.79488 227.102 0.657052 224.722 0.18983 222.05C-0.277392 219.379 0.0689018 216.367 1.77839 214.523C3.42741 212.78 5.90094 212.502 8.03367 213.203C13.7393 215.098 16.5261 222.385 17.9773 228.991C19.4284 235.596 20.5937 242.953 25.211 247.235C27.4921 249.35 30.3504 250.424 32.9998 251.863C38.2767 254.73 42.4982 257.907 42.9489 264.74C43.4986 273.429 43.5481 282.314 42.1409 290.909C41.4593 295.071 40.4919 299.251 40.7832 303.47C41.0745 307.688 42.6741 311.679 43.7185 315.771C43.8339 316.232 43.9493 316.699 44.0483 317.167C45.4334 323.665 44.9882 330.239 44.1582 336.87Z" fill="#30C59B"/>
<path d="M41.3755 374.382C41.128 373.649 40.9853 372.843 40.9571 372.018C40.5987 366.924 40.7777 361.775 41.4871 356.77C41.507 356.623 41.5309 356.475 41.5548 356.328C41.4114 362.358 41.8656 368.437 41.3755 374.382Z" fill="url(#paint15_linear_0_803)"/>
<path d="M89.3722 238.515C87.8147 240.862 85.5754 242.508 83.8571 244.704C78.4251 251.643 79.2232 262.197 80.5979 271.364C81.9725 280.53 83.4136 290.775 78.7909 298.44C76.8675 301.594 74.0684 303.991 72.0009 307.057C69.6984 310.494 68.3927 314.661 68.265 318.981C68.0876 325.472 70.593 331.945 69.5177 338.323C67.9269 347.741 59.3853 353.28 54.9898 361.469C52.1808 366.765 51.1677 373.046 52.1408 379.133C49.2798 378.596 46.4737 377.732 43.7655 376.553C43.0248 376.302 42.353 375.84 41.8144 375.209C41.7381 375.106 41.6694 374.997 41.6094 374.881C41.2658 374.13 41.0673 373.304 41.0273 372.458C40.5288 367.226 40.7777 361.936 41.7646 356.794C41.7923 356.643 41.8255 356.491 41.8588 356.34C42.6459 352.435 43.8099 348.606 44.1646 344.619C44.3532 342.034 44.3086 339.434 44.0316 336.859C44.8686 330.235 45.3175 323.668 43.9041 317.221C43.8043 316.754 43.6879 316.287 43.5715 315.826C43.6768 315.423 43.7988 315.019 43.9374 314.621C45.3286 310.546 48.0224 307.152 49.2474 303.007C50.8604 297.538 49.713 291.583 49.7574 285.823C49.8294 275.874 53.7704 266.266 60.1003 259.478C62.3563 257.062 65.0113 255.182 66.0589 251.712C67.4613 247.05 66.6132 241.713 65.61 237.089C64.4293 231.765 63.3097 225.645 66.0977 221.166C67.4834 218.946 69.6673 217.501 71.9399 216.643C77.4052 214.587 83.9291 215.88 87.9588 220.554C91.9884 225.229 92.842 233.317 89.3722 238.515Z" fill="#30C59B"/>
<path d="M187.721 138.869C187.721 138.869 164.572 142.955 153.864 172.105C143.156 201.254 148.724 237.368 148.912 240.545C149.099 243.723 181.723 257.506 191.05 257.506C200.377 257.506 202.319 246.837 202.319 246.837L185.839 238.823L235.913 232.221H244.904L239.951 241.753C239.951 241.753 249.724 242.922 256.256 243.189C262.787 243.456 267.222 228.706 267.954 221.373C268.686 214.04 239.104 149.672 234.685 145.86C230.267 142.047 218.277 132.731 187.721 138.869Z" fill="#2BD0D0"/>
<path d="M215.033 84.3559C215.033 84.3559 219.22 87.0448 218.844 95.7441C218.467 104.443 216.107 117.534 213.724 120.925C211.341 124.316 203.006 125.645 203.006 125.645C203.006 125.645 207.552 137.975 210.936 141.158C214.319 144.34 207.536 156.064 200.937 152.217C194.339 148.37 186.69 138.709 186.69 138.709C186.69 138.709 192.192 127.074 190.332 120.95C188.471 114.826 181.367 93.3336 186.69 87.4623C192.012 81.5911 203.489 73.1764 215.033 84.3559Z" fill="url(#paint16_linear_0_803)"/>
<path opacity="0.25" d="M178.368 180.539L174.761 231.903L185.778 238.502L194.734 236.717L183.559 221.036L178.368 180.539Z" fill="white"/>
<path opacity="0.25" d="M236.344 177.689C236.344 177.689 251.247 217.671 244.641 231.851L239.551 230.748L236.344 177.689Z" fill="white"/>
<path d="M196.001 245.196C196.001 245.196 190.37 250.684 192.883 254.952C195.396 259.22 198.396 259.098 200.898 257.189C203.4 255.281 208.314 250.751 214.169 252.83C220.023 254.909 221.445 256.232 221.445 256.232C221.445 256.232 224.529 254.031 223.728 251.824C222.928 249.617 216.805 242.465 215.03 241.538C213.256 240.611 205.891 243.459 205.891 243.459C205.891 243.459 200.478 241.788 196.001 245.196Z" fill="url(#paint17_linear_0_803)"/>
<path d="M245.657 233.369C245.657 233.369 240.343 234.09 239.001 238.079C237.659 242.069 237.176 242.554 237.176 242.554C237.176 242.554 240.177 243.21 241.425 241.353C242.673 239.497 243.971 240.277 243.971 240.277L243.599 242.659C243.599 242.659 251.753 244.063 255.436 242.554C259.119 241.045 260.7 239.274 260.7 239.274L262.142 235.245C262.142 235.245 258.664 232.365 256.041 231.919C253.417 231.472 245.657 233.369 245.657 233.369Z" fill="url(#paint18_linear_0_803)"/>
<path d="M273.703 275.56C273.703 275.56 291.957 291.416 290.334 312.864C288.712 334.312 286.329 366.159 286.329 366.159C286.329 366.159 278.967 369.695 274.089 366.159C269.211 362.622 266.258 314.23 263.841 309.609C261.424 304.987 246.885 284.152 231.351 282.358L273.703 275.56Z" fill="#25233A"/>
<path d="M182.251 290.818C182.251 290.818 190.943 300.221 206.437 303.173C221.931 306.126 229.153 308.589 233.888 323.703C238.624 338.816 243.166 371.343 244.652 374.979C246.138 378.614 252.46 376.759 252.46 376.759C252.46 376.759 256.035 372.108 256.035 346.244C256.035 310.188 258.245 302.797 250.283 293.739C242.32 284.681 235.076 282.212 235.076 282.212L182.251 290.818Z" fill="#3F3D56"/>
<path d="M244.666 376.282L246.18 389.772H249.016C249.016 389.772 267.281 390.9 267.854 390.413C268.427 389.926 266.975 379.73 260.055 380.018C253.134 380.307 252.681 378.096 252.681 378.096L244.666 376.282Z" fill="#25233A"/>
<path d="M275.457 366.928L278.384 380.083L310.372 375.131C310.372 375.131 311.498 366.49 301.365 367.347C298.691 367.569 296.698 369.69 293.483 369.709C290.269 369.728 287.189 368.242 285.568 365.83L275.457 366.928Z" fill="#25233A"/>
<path d="M384.312 201.764L265.937 209.037C263.075 209.209 260.632 206.689 260.478 203.406C260.478 203.305 260.478 203.197 260.478 203.096V106.873C260.48 102.976 263.196 99.7955 266.592 99.7131L384.482 96.9225C385.995 96.887 387.458 97.5423 388.549 98.7441C389.64 99.946 390.27 101.596 390.3 103.331V194.523C390.296 198.377 387.667 201.556 384.312 201.764Z" fill="#2BD0D0"/>
<path d="M390.969 201.765L272.59 209.038C269.727 209.206 267.286 206.683 267.135 203.4C267.135 203.299 267.135 203.198 267.135 203.097V106.872C267.131 102.975 269.848 99.792 273.245 99.7129L391.151 96.9223C394.294 96.8554 396.891 99.719 396.958 103.324V194.523C396.954 198.377 394.325 201.557 390.969 201.765Z" fill="#2BD0D0"/>
<path d="M390.969 201.765L272.59 209.038C269.727 209.206 267.286 206.683 267.135 203.4C267.135 203.299 267.135 203.198 267.135 203.097V106.872C267.131 102.975 269.848 99.792 273.245 99.7129L391.151 96.9223C394.294 96.8554 396.891 99.719 396.958 103.324V194.523C396.954 198.377 394.325 201.557 390.969 201.765Z" fill="url(#paint19_linear_0_803)"/>
<path d="M355.991 238.633L325.787 242.303C325.787 242.303 316.589 240.184 317.086 238.633C317.584 237.082 327.202 235.587 327.202 235.587V173.06C327.119 172.921 325.853 171.08 322.385 169.907C321.713 169.68 321.03 169.498 320.339 169.365C319.744 169.266 319.166 169.066 318.624 168.772C316.561 167.555 318.84 165.436 322.042 165.342C322.543 165.322 323.045 165.355 323.541 165.443H346.771C346.771 165.443 355.565 168.268 355.991 182.367C356.417 196.467 355.991 238.633 355.991 238.633Z" fill="#3A3054"/>
<path d="M331.214 238.765L325.657 242.303C325.657 242.303 316.596 240.184 317.086 238.633C317.576 237.081 327.068 235.587 327.068 235.587V173.055C326.953 172.91 325.564 171.251 322.322 169.902C321.115 169.41 319.876 169.031 318.617 168.767C316.585 167.55 318.83 165.431 321.984 165.336C324.671 165.759 329.961 169.164 330.304 171.106C330.648 173.049 331.214 238.765 331.214 238.765Z" fill="#51466B"/>
<path d="M218.868 369.631C218.134 370.582 217.793 370.933 218.227 370.15C218.451 370 218.666 369.826 218.868 369.631Z" fill="url(#paint20_linear_0_803)"/>
<defs>
<linearGradient id="paint0_linear_0_803" x1="168.936" y1="370.581" x2="178.09" y2="370.581" gradientUnits="userSpaceOnUse">
<stop stop-color="#183866"/>
<stop offset="1" stop-color="#1A7FC1"/>
</linearGradient>
<linearGradient id="paint1_linear_0_803" x1="191.399" y1="367.731" x2="196.398" y2="367.731" gradientUnits="userSpaceOnUse">
<stop/>
<stop offset="0.99" stop-opacity="0.01"/>
</linearGradient>
<linearGradient id="paint2_linear_0_803" x1="219.63" y1="102.462" x2="232.145" y2="122.965" gradientUnits="userSpaceOnUse">
<stop/>
<stop offset="0.99" stop-opacity="0.01"/>
</linearGradient>
<linearGradient id="paint3_linear_0_803" x1="240.945" y1="-91.7521" x2="203.09" y2="-91.8315" gradientUnits="userSpaceOnUse">
<stop/>
<stop offset="0.99" stop-opacity="0.01"/>
</linearGradient>
<linearGradient id="paint4_linear_0_803" x1="297.212" y1="95.02" x2="285.858" y2="48.9826" gradientUnits="userSpaceOnUse">
<stop/>
<stop offset="0.99" stop-opacity="0.01"/>
</linearGradient>
<linearGradient id="paint5_linear_0_803" x1="257.854" y1="51.6133" x2="254.48" y2="50.6805" gradientUnits="userSpaceOnUse">
<stop/>
<stop offset="0.99" stop-opacity="0.01"/>
</linearGradient>
<linearGradient id="paint6_linear_0_803" x1="214.795" y1="94.5535" x2="198.995" y2="110.423" gradientUnits="userSpaceOnUse">
<stop/>
<stop offset="0.99" stop-opacity="0.01"/>
</linearGradient>
<linearGradient id="paint7_linear_0_803" x1="436.491" y1="21.426" x2="23.1694" y2="-57.2623" gradientUnits="userSpaceOnUse">
<stop/>
<stop offset="1" stop-opacity="0.01"/>
</linearGradient>
<linearGradient id="paint8_linear_0_803" x1="176.528" y1="232.54" x2="394.56" y2="232.54" gradientUnits="userSpaceOnUse">
<stop stop-color="#183866"/>
<stop offset="1" stop-color="#1A7FC1"/>
</linearGradient>
<linearGradient id="paint9_linear_0_803" x1="62.794" y1="213.998" x2="64.4686" y2="316.355" gradientUnits="userSpaceOnUse">
<stop/>
<stop offset="0.99" stop-opacity="0.01"/>
</linearGradient>
<linearGradient id="paint10_linear_0_803" x1="164.071" y1="238.325" x2="173.795" y2="281.925" gradientUnits="userSpaceOnUse">
<stop/>
<stop offset="0.99" stop-opacity="0.01"/>
</linearGradient>
<linearGradient id="paint11_linear_0_803" x1="197.641" y1="247.711" x2="196.989" y2="265.24" gradientUnits="userSpaceOnUse">
<stop/>
<stop offset="0.99" stop-opacity="0.01"/>
</linearGradient>
<linearGradient id="paint12_linear_0_803" x1="104.949" y1="45.5659" x2="68.3788" y2="40.9935" gradientUnits="userSpaceOnUse">
<stop/>
<stop offset="0.99" stop-opacity="0.01"/>
</linearGradient>
<linearGradient id="paint13_linear_0_803" x1="110.987" y1="73.3302" x2="81.5246" y2="66.2861" gradientUnits="userSpaceOnUse">
<stop/>
<stop offset="0.99" stop-opacity="0.01"/>
</linearGradient>
<linearGradient id="paint14_linear_0_803" x1="-159.885" y1="352.334" x2="-160.579" y2="440.572" gradientUnits="userSpaceOnUse">
<stop/>
<stop offset="0.99" stop-opacity="0.01"/>
</linearGradient>
<linearGradient id="paint15_linear_0_803" x1="65.0833" y1="61.5054" x2="62.1515" y2="61.5492" gradientUnits="userSpaceOnUse">
<stop/>
<stop offset="0.99" stop-opacity="0.01"/>
</linearGradient>
<linearGradient id="paint16_linear_0_803" x1="184.734" y1="152.991" x2="218.866" y2="152.991" gradientUnits="userSpaceOnUse">
<stop stop-color="#ECC4D7"/>
<stop offset="0.42" stop-color="#EFD4D1"/>
<stop offset="1" stop-color="#F2EAC9"/>
</linearGradient>
<linearGradient id="paint17_linear_0_803" x1="223.555" y1="221.976" x2="255.178" y2="221.976" gradientUnits="userSpaceOnUse">
<stop stop-color="#ECC4D7"/>
<stop offset="0.42" stop-color="#EFD4D1"/>
<stop offset="1" stop-color="#F2EAC9"/>
</linearGradient>
<linearGradient id="paint18_linear_0_803" x1="268.21" y1="227.909" x2="293.176" y2="227.909" gradientUnits="userSpaceOnUse">
<stop stop-color="#ECC4D7"/>
<stop offset="0.42" stop-color="#EFD4D1"/>
<stop offset="1" stop-color="#F2EAC9"/>
</linearGradient>
<linearGradient id="paint19_linear_0_803" x1="374.635" y1="192.903" x2="256.139" y2="313.532" gradientUnits="userSpaceOnUse">
<stop stop-color="#362958" stop-opacity="0.500601"/>
<stop offset="1" stop-color="#34313D" stop-opacity="0.01"/>
</linearGradient>
<linearGradient id="paint20_linear_0_803" x1="251.427" y1="43.8665" x2="250.429" y2="43.5431" gradientUnits="userSpaceOnUse">
<stop/>
<stop offset="0.99" stop-opacity="0.01"/>
</linearGradient>
</defs>
</svg>
